Coordinates
nRows=132
nColumns=2
inDegrees=yes
endheader
time	ankle_angle_r	
3.50706	 -0.406881	
3.57863	 -0.468393	
3.6502	 -0.534058	
3.72177	 -0.473022	
3.79335	 -0.518799	
3.86492	 -0.482134	
3.93649	 -0.549316	
4.00806	 -0.510103	
4.07964	 -0.428963	
4.15121	 -0.473022	
4.22278	 -0.419174	
4.29435	 -0.434641	
4.36593	 -0.427246	
4.4375	 -0.404540	
4.50907	 -0.442505	
4.58065	 -0.427246	
4.65222	 -0.411987	
4.72379	 -0.447093	
4.79536	 -0.497132	
4.86694	 -0.558376	
4.93851	 -0.467031	
5.01008	 -0.509324	
5.08165	 -0.549316	
5.15323	 -0.503540	
5.2248	 -0.477962	
5.29637	 -0.488281	
5.36794	 -0.529314	
5.43952	 -0.514263	
5.51109	 -0.468695	
5.58266	 -0.457764	
5.65423	 -0.518799	
5.72581	 -0.549316	
5.79738	 -0.449496	
5.86895	 -0.476310	
5.94052	 -0.476102	
6.0121	 -0.488281	
6.08367	 -0.421920	
6.15524	 -0.447415	
6.22681	 -0.503540	
6.29839	 -0.440466	
6.36996	 -0.471191	
6.44153	 -0.440882	
6.5131	 -0.486866	
6.58468	 -0.457764	
6.65625	 -0.426247	
6.72782	 -0.456973	
6.7994	 -0.411404	
6.87097	 -0.443255	
6.94254	 -0.396562	
7.01411	 -0.411905	
7.08569	 -0.488032	
7.15726	 -0.487824	
7.22883	 -0.488281	
7.3004	 -0.427246	
7.37198	 -0.536220	
7.44355	 -0.504829	
7.51512	 -0.427246	
7.58669	 -0.484871	
7.65827	 -0.549316	
7.72984	 -0.520920	
7.80141	 -0.447163	
7.87298	 -0.439968	
7.94456	 -0.485536	
8.01613	 -0.503540	
8.0877	 -0.481959	
8.15927	 -0.481543	
8.23085	 -0.523326	
8.30242	 -0.499755	
8.37399	 -0.461757	
8.44556	 -0.503540	
8.51714	 -0.473022	
8.58871	 -0.457764	
8.66028	 -0.396729	
8.73185	 -0.401920	
8.80343	 -0.442505	
8.875	 -0.421797	
8.94657	 -0.442505	
9.01815	 -0.393201	
9.08972	 -0.457764	
9.16129	 -0.464045	
9.23286	 -0.448995	
9.30444	 -0.473022	
9.37601	 -0.464669	
9.44758	 -0.503540	
9.51915	 -0.442505	
9.59073	 -0.465692	
9.6623	 -0.541579	
9.73387	 -0.503540	
9.80544	 -0.518799	
9.87702	 -0.485351	
9.94859	 -0.512110	
10.0202	 -0.451283	
10.0917	 -0.403001	
10.1633	 -0.442505	
10.2349	 -0.436648	
10.3065	 -0.452115	
10.378	 -0.406547	
10.4496	 -0.462996	
10.5212	 -0.513774	
10.5927	 -0.407171	
10.6643	 -0.431855	
10.7359	 -0.431647	
10.8075	 -0.507733	
10.879	 -0.449794	
10.9506	 -0.446281	
11.0222	 -0.503540	
11.0937	 -0.503540	
11.1653	 -0.530905	
11.2369	 -0.460708	
11.3085	 -0.521535	
11.38	 -0.562047	
11.4516	 -0.501220	
11.5232	 -0.490394	
11.5948	 -0.503540	
11.6663	 -0.532361	
11.7379	 -0.502052	
11.8095	 -0.499699	
11.881	 -0.548244	
11.9526	 -0.563711	
12.0242	 -0.563919	
12.0958	 -0.534058	
12.1673	 -0.549557	
12.2389	 -0.549381	
12.3105	 -0.427598	
12.3821	 -0.473022	
12.4536	 -0.426654	
12.5252	 -0.456964	
12.5968	 -0.411987	
12.6683	 -0.352168	
12.7399	 -0.427246	
12.8115	 -0.444137	
12.8831	 -0.442505	
